<svg width="34" height="30" viewBox="0 0 34 30" fill="none" xmlns="http://www.w3.org/2000/svg">
<path d="M10.3765 0C5.03719 0 0.649414 3.97372 0.649414 8.82102V21.179C0.649414 26.021 5.03131 30 10.3765 30H24.0039C29.3432 30 33.731 26.0263 33.731 21.179V8.82102C33.731 3.97905 29.3491 0 24.0039 0H10.3765ZM10.3765 2.72727H24.0039C27.722 2.72727 30.7236 5.44922 30.7236 8.82102V21.179C30.7236 24.5508 27.722 27.2727 24.0039 27.2727H10.3765C6.65837 27.2727 3.65683 24.5508 3.65683 21.179V8.82102C3.65683 5.44922 6.65837 2.72727 10.3765 2.72727ZM26.0715 5.71023C25.3137 5.71023 24.7087 6.25888 24.7087 6.94602C24.7087 7.63317 25.3137 8.18182 26.0715 8.18182C26.8292 8.18182 27.4342 7.63317 27.4342 6.94602C27.4342 6.25888 26.8292 5.71023 26.0715 5.71023ZM17.1902 6.81818C12.2268 6.81818 8.16795 10.4989 8.16795 15C8.16795 19.5011 12.2268 23.1818 17.1902 23.1818C22.1536 23.1818 26.2124 19.5011 26.2124 15C26.2124 10.4989 22.1536 6.81818 17.1902 6.81818ZM17.1902 9.54545C20.5324 9.54545 23.205 11.9691 23.205 15C23.205 18.0309 20.5324 20.4545 17.1902 20.4545C13.848 20.4545 11.1754 18.0309 11.1754 15C11.1754 11.9691 13.848 9.54545 17.1902 9.54545Z" fill="white"/>
</svg>
