<svg width="12" height="12" viewBox="0 0 12 12" fill="none" xmlns="http://www.w3.org/2000/svg">
<path fill-rule="evenodd" clip-rule="evenodd" d="M4.5 1.50057C3.70435 1.50057 2.94129 1.81665 2.37868 2.37925C1.81607 2.94186 1.5 3.70493 1.5 4.50057C1.5 5.29622 1.81607 6.05929 2.37868 6.6219C2.94129 7.1845 3.70435 7.50058 4.5 7.50058C5.29565 7.50058 6.05871 7.1845 6.62132 6.6219C7.18393 6.05929 7.5 5.29622 7.5 4.50057C7.5 3.70493 7.18393 2.94186 6.62132 2.37925C6.05871 1.81665 5.29565 1.50057 4.5 1.50057ZM8.50961e-08 4.50057C-9.02923e-05 3.79235 0.166982 3.09411 0.487629 2.46263C0.808275 1.83115 1.27344 1.28427 1.8453 0.866469C2.41715 0.448665 3.07955 0.171734 3.77861 0.0581995C4.47767 -0.0553349 5.19366 -0.00226687 5.86835 0.213087C6.54303 0.428442 7.15736 0.800001 7.66137 1.29755C8.16539 1.79509 8.54484 2.40457 8.76889 3.07642C8.99294 3.74827 9.05524 4.46352 8.95074 5.16399C8.84624 5.86446 8.57789 6.53037 8.1675 7.10757L11.7803 10.7203C11.9169 10.8618 11.9925 11.0512 11.9908 11.2479C11.989 11.4445 11.9102 11.6326 11.7711 11.7717C11.6321 11.9107 11.4439 11.9896 11.2473 11.9913C11.0507 11.993 10.8612 11.9174 10.7197 11.7808L7.10775 8.16883C6.43452 8.64754 5.64251 8.93169 4.81851 8.99016C3.9945 9.04863 3.1703 8.87916 2.43622 8.5003C1.70215 8.12145 1.08651 7.54784 0.656793 6.84234C0.22707 6.13683 -0.000160538 5.32665 8.50961e-08 4.50057Z" fill="#401B1B"/>
</svg>
