<svg width="211" height="211" viewBox="0 0 211 211" fill="none" xmlns="http://www.w3.org/2000/svg">
<g clip-path="url(#clip0_657_86)">
<path d="M126.311 20.7704C124.745 21.5946 119.347 24.603 114.36 27.529L105.294 32.804L105.088 29.8368C104.841 26.4163 104.058 24.9739 101.75 23.7788C100.431 23.1194 97.9171 23.0782 62.3521 23.1606C24.4792 23.2843 24.3556 23.2843 23.2017 24.1497C22.5835 24.6442 21.6769 25.6333 21.2236 26.4163C20.3993 27.7763 20.3993 28.6417 20.2757 79.4136L20.1933 130.968L12.2396 131.133C4.94525 131.257 4.20345 131.339 2.8847 132.164C-0.0412789 133.977 -6.78802e-05 133.688 -6.78802e-05 151.368C-6.78802e-05 173.168 -1.56608 171.438 18.4212 171.438H32.1445V179.226C32.1445 186.603 32.1857 187.057 33.0511 188.334C34.6171 190.601 36.0183 191.384 38.4909 191.384C40.263 191.384 41.0048 191.178 42.2411 190.23C44.6726 188.375 44.9199 187.304 44.9199 178.856V171.438H105.5H166.08L166.121 178.732C166.121 187.098 166.41 188.293 168.676 190.147C171.602 192.496 176.135 191.631 177.99 188.334C178.773 186.892 178.855 186.15 178.855 179.103V171.438H192.579C207.868 171.438 208.156 171.396 210.093 168.553C211 167.193 211 167.11 211 151.368C211 133.688 211.041 133.977 208.115 132.164C206.714 131.298 206.178 131.257 192.125 131.051L177.578 130.845L183.059 127.713C189.488 124.045 190.394 123.015 190.394 119.594C190.394 117.369 190.147 116.916 162.701 69.3581C140.9 31.6501 134.718 21.2237 133.729 20.6056C131.298 19.122 129.526 19.1632 126.311 20.7704ZM152.11 76.8173L175.435 117.204L165.627 122.891C160.228 126.023 155.654 128.578 155.489 128.578C155.324 128.578 144.485 110.033 131.422 87.4085L107.725 46.28L117.616 40.5105C127.301 34.9058 127.548 34.7821 128.166 35.6063C128.496 36.0597 139.293 54.6046 152.11 76.8173ZM56.4589 83.4523V131.051H44.7138H32.9687V83.4523V35.8536H44.7138H56.4589V83.4523ZM92.3124 83.4523V131.051H80.7734H69.2343V83.4523V35.8536H80.7734H92.3124V83.4523ZM123.221 98.9064C132.823 115.556 140.941 129.609 141.271 130.103L141.848 131.051H123.468H105.088V99.4421C105.088 82.0511 105.253 67.9981 105.418 68.2042C105.624 68.4515 113.618 82.2571 123.221 98.9064ZM198.637 151.244V158.662H105.5H12.3632V151.244V143.826H105.5H198.637V151.244Z" fill="#401B1B"/>
</g>
<defs>
<clipPath id="clip0_657_86">
<rect width="211" height="211" fill="white"/>
</clipPath>
</defs>
</svg>
