<svg width="39" height="30" viewBox="0 0 39 30" fill="none" xmlns="http://www.w3.org/2000/svg">
<path d="M25.3245 0.0791168C23.4723 0.375198 21.6126 1.33566 20.3309 2.6572C18.9528 4.07984 18.2638 5.64691 18.1082 7.71227C18.049 8.5283 18.1379 8.47052 17.1525 8.30443C14.3964 7.84225 11.7588 6.79513 9.38052 5.21362C8.00987 4.30371 6.97262 3.40102 5.41674 1.74729C5.0463 1.35732 4.86848 1.27067 4.43877 1.27067C4.10536 1.27067 3.81642 1.39343 3.58674 1.64619C3.37929 1.86283 2.96439 2.67886 2.7199 3.34324C2.02346 5.23528 2.16423 7.66894 3.08293 9.44543L3.25334 9.77762L3.07552 9.82095C2.79399 9.89316 2.3939 10.2759 2.29018 10.5648C2.16423 10.9403 2.25313 12.0596 2.4754 12.9118C2.83844 14.2983 3.53488 15.5332 4.5499 16.5586C5.06112 17.0786 5.09075 17.1364 4.99444 17.2663C4.76476 17.5696 4.72031 17.9596 4.85367 18.3857C5.20929 19.4833 6.00946 20.6893 6.98744 21.6137C7.7061 22.2853 8.22473 22.6536 9.07675 23.0941L9.59538 23.3613L9.1138 23.5707C7.35788 24.3434 5.16484 24.7189 2.8903 24.6323C1.60856 24.5817 1.59374 24.589 1.33443 24.7551C0.83803 25.08 0.660216 25.8238 0.956573 26.3077C1.33443 26.9071 4.40172 28.3947 6.57994 29.0446C12.3367 30.7489 18.7602 30.1495 23.8205 27.4342C28.1621 25.1089 31.4517 21.5487 33.4076 17.0641C34.3634 14.876 34.8894 12.594 35.0598 9.9726L35.1413 8.60051L35.6896 8.04445C36.4898 7.21398 37.0751 6.39795 37.5715 5.42304C38.0679 4.44092 38.3049 3.58878 38.3049 2.81607C38.3049 2.1878 38.1345 1.89894 37.6381 1.64619C37.2158 1.43676 36.9195 1.47287 36.2897 1.80506C35.2377 2.36834 34.0522 2.59943 33.0817 2.43333C32.6445 2.3539 32.526 2.30334 32.2 2.01448C31.1702 1.11901 29.8069 0.447414 28.3548 0.14411C27.5991 -0.0147648 26.1173 -0.0508709 25.3245 0.0791168ZM27.8065 2.38278C28.903 2.59221 29.9921 3.14104 30.8219 3.91374C31.2961 4.35426 31.6888 4.54202 32.3778 4.66478C32.9483 4.76588 34.5857 4.77311 35.0376 4.672C35.4155 4.59257 35.4155 4.60701 34.9635 5.26417C34.4968 5.92855 33.9781 6.49183 33.4447 6.91068C32.7483 7.44507 32.7408 7.47396 32.7112 9.0988C32.6593 11.6047 32.2815 13.5111 31.3998 15.7426C29.7625 19.8516 26.6137 23.3396 22.6721 25.4122C18.3379 27.6942 12.8553 28.308 8.07655 27.0443C7.60979 26.9215 7.15043 26.806 7.06152 26.7843C6.77999 26.7193 6.86889 26.6543 7.35788 26.5532C8.18027 26.3943 9.79542 25.8311 10.7882 25.3617C11.9144 24.8201 13.4777 23.8307 13.7221 23.4913C13.9666 23.1591 13.9666 22.4875 13.7221 22.1553C13.4702 21.8159 13.2332 21.722 12.4034 21.6426C11.2105 21.5198 10.2474 21.1732 9.29902 20.516C8.85448 20.2127 8.00246 19.3895 8.00246 19.2739C8.00246 19.2378 8.30622 19.1728 8.67667 19.1223C9.43979 19.0212 9.80283 18.8912 10.0992 18.6168C10.6326 18.1185 10.4622 17.1797 9.7806 16.833C9.67687 16.7825 9.38052 16.6886 9.12121 16.6236C7.60238 16.2481 6.16505 15.1649 5.37229 13.8C5.13521 13.3956 4.86107 12.7529 4.90553 12.7168C4.92035 12.7023 5.17966 12.7384 5.48342 12.7962C6.33545 12.9406 6.92816 12.9262 7.26157 12.7457C7.78019 12.4568 8.00987 11.7419 7.74315 11.2364C7.68387 11.1208 7.39493 10.8392 7.09857 10.6081C6.35027 10.0087 6.28359 9.95094 5.89091 9.46709C5.44638 8.92548 5.00925 8.05168 4.81662 7.30786C4.64622 6.65792 4.61658 5.48804 4.74994 4.87421L4.83144 4.50591L5.40193 5.04752C8.39513 7.91447 12.8998 10.0448 17.234 10.6514C19.5085 10.9692 20.0049 10.9331 20.405 10.4276C20.6791 10.0737 20.7013 9.83539 20.5606 9.02658C20.279 7.45951 20.6495 5.98632 21.6201 4.72978C22.4647 3.65377 23.7316 2.83774 25.1171 2.49833C26.0802 2.26002 26.9471 2.22391 27.8065 2.38278Z" fill="white"/>
</svg>
