<svg width="102" height="102" viewBox="0 0 102 102" fill="none" xmlns="http://www.w3.org/2000/svg">
<g clip-path="url(#clip0_934_101)">
<rect x="7.11621" y="7.11621" width="90.1395" height="87.7674" fill="white"/>
<path d="M17 79.3333C17 68 39.6667 61.7667 51 61.7667C62.3333 61.7667 85 68 85 79.3333V85H17M68 34C68 38.5087 66.2089 42.8327 63.0208 46.0208C59.8327 49.2089 55.5087 51 51 51C46.4913 51 42.1673 49.2089 38.9792 46.0208C35.7911 42.8327 34 38.5087 34 34C34 29.4913 35.7911 25.1673 38.9792 21.9792C42.1673 18.7911 46.4913 17 51 17C55.5087 17 59.8327 18.7911 63.0208 21.9792C66.2089 25.1673 68 29.4913 68 34ZM0 11.3333V90.6667C0 93.6725 1.19404 96.5551 3.31946 98.6805C5.44487 100.806 8.32755 102 11.3333 102H90.6667C93.6725 102 96.5551 100.806 98.6805 98.6805C100.806 96.5551 102 93.6725 102 90.6667V11.3333C102 8.32755 100.806 5.44487 98.6805 3.31946C96.5551 1.19404 93.6725 0 90.6667 0H11.3333C8.32755 0 5.44487 1.19404 3.31946 3.31946C1.19404 5.44487 0 8.32755 0 11.3333Z" fill="#401B1B"/>
</g>
<defs>
<clipPath id="clip0_934_101">
<rect width="102" height="102" fill="white"/>
</clipPath>
</defs>
</svg>
