<svg width="34" height="30" viewBox="0 0 34 30" fill="none" xmlns="http://www.w3.org/2000/svg">
<path d="M0.386719 30L2.72318 22.2962C1.28141 20.0413 0.523831 17.485 0.525217 14.8637C0.529372 6.66875 7.91823 0 16.9968 0C21.4024 0.00125 25.5379 1.55 28.6486 4.36C31.7579 7.17 33.4697 10.905 33.4683 14.8775C33.4641 23.0737 26.0753 29.7425 16.9968 29.7425C14.2407 29.7412 11.5247 29.1175 9.11901 27.9325L0.386719 30ZM9.52343 25.2412C11.8446 26.485 14.0606 27.23 16.9912 27.2312C24.5366 27.2312 30.6832 21.6887 30.6873 14.875C30.6901 8.0475 24.5726 2.5125 17.0023 2.51C9.4514 2.51 3.30903 8.0525 3.30625 14.865C3.30487 17.6462 4.20787 19.7288 5.72442 21.9075L4.34083 26.4675L9.52343 25.2412ZM25.2942 18.4112C25.1917 18.2563 24.9174 18.1637 24.5048 17.9775C24.0934 17.7913 22.07 16.8925 21.6919 16.7687C21.3151 16.645 21.0409 16.5825 20.7653 16.955C20.4911 17.3263 19.7017 18.1637 19.462 18.4112C19.2224 18.6587 18.9814 18.69 18.5701 18.5038C18.1588 18.3175 16.8319 17.9263 15.2601 16.66C14.0371 15.675 13.2102 14.4587 12.9707 14.0863C12.731 13.715 12.9458 13.5137 13.1506 13.3288C13.3363 13.1625 13.562 12.895 13.7684 12.6775C13.9775 12.4625 14.0454 12.3075 14.1839 12.0587C14.321 11.8112 14.2531 11.5937 14.1493 11.4075C14.0454 11.2225 13.2227 9.39375 12.8806 8.65C12.5455 7.92625 12.2062 8.02375 11.9541 8.0125L11.1646 8C10.8904 8 10.4444 8.0925 10.0677 8.465C9.69101 8.8375 8.62735 9.735 8.62735 11.5637C8.62735 13.3925 10.1024 15.1588 10.3073 15.4063C10.5137 15.6538 13.2088 19.4062 17.3375 21.015C18.3194 21.3975 19.0867 21.6262 19.6836 21.7975C20.6698 22.08 21.5672 22.04 22.2763 21.945C23.0672 21.8387 24.7111 21.0463 25.0545 20.1787C25.3981 19.31 25.3981 18.5662 25.2942 18.4112Z" fill="white"/>
</svg>
